UbuntuSansMono-Bold.ufo
<glyph name="boxHeavyHorizontal" format="2">
  <advance width="560"/>
  <unicode hex="2501"/>
  <outline>
    <contour>
      <point x="-5" y="173" type="line"/>
      <point x="565" y="173" type="line"/>
      <point x="565" y="447" type="line"/>
      <point x="-5" y="447" type="line"/>
    </contour>
  </outline>
</glyph>
<glyph name="boxHeavyTripleDashHorizontal" format="2">
  <advance width="560"/>
  <unicode hex="2505"/>
  <outline>
    <contour>
      <point x="404" y="173" type="line"/>
      <point x="529" y="173" type="line"/>
      <point x="529" y="447" type="line"/>
      <point x="404" y="447" type="line"/>
    </contour>
    <contour>
      <point x="31" y="173" type="line"/>
      <point x="156" y="173" type="line"/>
      <point x="156" y="447" type="line"/>
      <point x="31" y="447" type="line"/>
    </contour>
    <contour>
      <point x="218" y="173" type="line"/>
      <point x="342" y="173" type="line"/>
      <point x="342" y="447" type="line"/>
      <point x="218" y="447" type="line"/>
    </contour>
  </outline>
</glyph>
<glyph name="boxLightQuadrupleDashVertical" format="2">
  <advance width="560"/>
  <unicode hex="250A"/>
  <outline>
    <contour>
      <point x="212" y="591" type="line"/>
      <point x="349" y="591" type="line"/>
      <point x="349" y="779" type="line"/>
      <point x="212" y="779" type="line"/>
    </contour>
    <contour>
      <point x="212" y="-159" type="line"/>
      <point x="349" y="-159" type="line"/>
      <point x="349" y="29" type="line"/>
      <point x="212" y="29" type="line"/>
    </contour>
    <contour>
      <point x="212" y="91" type="line"/>
      <point x="349" y="91" type="line"/>
      <point x="349" y="279" type="line"/>
      <point x="212" y="279" type="line"/>
    </contour>
    <contour>
      <point x="212" y="341" type="line"/>
      <point x="349" y="341" type="line"/>
      <point x="349" y="529" type="line"/>
      <point x="212" y="529" type="line"/>
    </contour>
  </outline>
</glyph>
<glyph name="boxDownLightAndRightHeavy" format="2">
  <advance width="560"/>
  <unicode hex="250D"/>
  <outline>
    <contour>
      <point x="212" y="-300" type="line"/>
      <point x="349" y="-300" type="line"/>
      <point x="349" y="173" type="line"/>
      <point x="565" y="173" type="line"/>
      <point x="565" y="447" type="line"/>
      <point x="212" y="447" type="line"/>
    </contour>
  </outline>
</glyph>
<glyph name="boxUpHeavyAndRightLight" format="2">
  <advance width="560"/>
  <unicode hex="2516"/>
  <outline>
    <contour>
      <point x="143" y="242" type="line"/>
      <point x="565" y="242" type="line"/>
      <point x="565" y="379" type="line"/>
      <point x="417" y="379" type="line"/>
      <point x="417" y="920" type="line"/>
      <point x="143" y="920" type="line"/>
    </contour>
  </outline>
</glyph>
<glyph name="boxHeavyUpAndLeft" format="2">
  <advance width="560"/>
  <unicode hex="251B"/>
  <outline>
    <contour>
      <point x="-5" y="173" type="line"/>
      <point x="417" y="173" type="line"/>
      <point x="417" y="920" type="line"/>
      <point x="143" y="920" type="line"/>
      <point x="143" y="447" type="line"/>
      <point x="-5" y="447" type="line"/>
    </contour>
  </outline>
</glyph>
<glyph name="boxHeavyVerticalAndRight" format="2">
  <advance width="560"/>
  <unicode hex="2523"/>
  <outline>
    <contour>
      <point x="143" y="-300" type="line"/>
      <point x="417" y="-300" type="line"/>
      <point x="417" y="173" type="line"/>
      <point x="565" y="173" type="line"/>
      <point x="565" y="447" type="line"/>
      <point x="417" y="447" type="line"/>
      <point x="417" y="920" type="line"/>
      <point x="143" y="920" type="line"/>
    </contour>
  </outline>
</glyph>
<glyph name="boxLeftHeavyAndRightDownLight" format="2">
  <advance width="560"/>
  <unicode hex="252D"/>
  <outline>
    <contour>
      <point x="212" y="-300" type="line"/>
      <point x="349" y="-300" type="line"/>
      <point x="349" y="242" type="line"/>
      <point x="565" y="242" type="line"/>
      <point x="565" y="379" type="line"/>
      <point x="349" y="379" type="line"/>
      <point x="349" y="447" type="line"/>
      <point x="-5" y="447" type="line"/>
      <point x="-5" y="173" type="line"/>
      <point x="212" y="173" type="line"/>
    </contour>
  </outline>
</glyph>
<glyph name="boxRightLightAndLeftDownHeavy" format="2">
  <advance width="560"/>
  <unicode hex="2531"/>
  <outline>
    <contour>
      <point x="143" y="-300" type="line"/>
      <point x="417" y="-300" type="line"/>
      <point x="417" y="242" type="line"/>
      <point x="565" y="242" type="line"/>
      <point x="565" y="379" type="line"/>
      <point x="417" y="379" type="line"/>
      <point x="417" y="447" type="line"/>
      <point x="-5" y="447" type="line"/>
      <point x="-5" y="173" type="line"/>
      <point x="143" y="173" type="line"/>
    </contour>
  </outline>
</glyph>
<glyph name="boxUpLightAndHorizontalHeavy" format="2">
  <advance width="560"/>
  <unicode hex="2537"/>
  <outline>
    <contour>
      <point x="-5" y="173" type="line"/>
      <point x="565" y="173" type="line"/>
      <point x="565" y="447" type="line"/>
      <point x="349" y="447" type="line"/>
      <point x="349" y="920" type="line"/>
      <point x="212" y="920" type="line"/>
      <point x="212" y="447" type="line"/>
      <point x="-5" y="447" type="line"/>
    </contour>
  </outline>
</glyph>
<glyph name="boxRightHeavyAndLeftVerticalLight" format="2">
  <advance width="560"/>
  <unicode hex="253E"/>
  <outline>
    <contour>
      <point x="212" y="-300" type="line"/>
      <point x="349" y="-300" type="line"/>
      <point x="349" y="173" type="line"/>
      <point x="565" y="173" type="line"/>
      <point x="565" y="447" type="line"/>
      <point x="349" y="447" type="line"/>
      <point x="349" y="920" type="line"/>
      <point x="212" y="920" type="line"/>
      <point x="212" y="379" type="line"/>
      <point x="-5" y="379" type="line"/>
      <point x="-5" y="242" type="line"/>
      <point x="212" y="242" type="line"/>
    </contour>
  </outline>
</glyph>
<glyph name="boxVerticalLightAndHorizontalHeavy" format="2">
  <advance width="560"/>
  <unicode hex="253F"/>
  <outline>
    <contour>
      <point x="212" y="-300" type="line"/>
      <point x="349" y="-300" type="line"/>
      <point x="349" y="173" type="line"/>
      <point x="565" y="173" type="line"/>
      <point x="565" y="447" type="line"/>
      <point x="349" y="447" type="line"/>
      <point x="349" y="920" type="line"/>
      <point x="212" y="920" type="line"/>
      <point x="212" y="447" type="line"/>
      <point x="-5" y="447" type="line"/>
      <point x="-5" y="173" type="line"/>
      <point x="212" y="173" type="line"/>
    </contour>
  </outline>
</glyph>
<glyph name="boxLeftDownHeavyAndRightUpLight" format="2">
  <advance width="560"/>
  <unicode hex="2545"/>
  <outline>
    <contour>
      <point x="143" y="-300" type="line"/>
      <point x="417" y="-300" type="line"/>
      <point x="417" y="242" type="line"/>
      <point x="565" y="242" type="line"/>
      <point x="565" y="379" type="line"/>
      <point x="417" y="379" type="line"/>
      <point x="417" y="447" type="line"/>
      <point x="349" y="447" type="line"/>
      <point x="349" y="920" type="line"/>
      <point x="212" y="920" type="line"/>
      <point x="212" y="447" type="line"/>
      <point x="-5" y="447" type="line"/>
      <point x="-5" y="173" type="line"/>
      <point x="143" y="173" type="line"/>
    </contour>
  </outline>
</glyph>
<glyph name="boxRightDownHeavyAndLeftUpLight" format="2">
  <advance width="560"/>
  <unicode hex="2546"/>
  <outline>
    <contour>
      <point x="143" y="-300" type="line"/>
      <point x="417" y="-300" type="line"/>
      <point x="417" y="173" type="line"/>
      <point x="565" y="173" type="line"/>
      <point x="565" y="447" type="line"/>
      <point x="349" y="447" type="line"/>
      <point x="349" y="920" type="line"/>
      <point x="212" y="920" type="line"/>
      <point x="212" y="447" type="line"/>
      <point x="143" y="447" type="line"/>
      <point x="143" y="379" type="line"/>
      <point x="-5" y="379" type="line"/>
      <point x="-5" y="242" type="line"/>
      <point x="143" y="242" type="line"/>
    </contour>
  </outline>
</glyph>
<glyph name="boxLightDoubleDashHorizontal" format="2">
  <advance width="560"/>
  <unicode hex="254C"/>
  <outline>
    <contour>
      <point x="350" y="242" type="line"/>
      <point x="490" y="242" type="line"/>
      <point x="490" y="379" type="line"/>
      <point x="350" y="379" type="line"/>
    </contour>
    <contour>
      <point x="70" y="242" type="line"/>
      <point x="210" y="242" type="line"/>
      <point x="210" y="379" type="line"/>
      <point x="70" y="379" type="line"/>
    </contour>
  </outline>
</glyph>
<glyph name="boxLightDoubleDashVertical" format="2">
  <advance width="560"/>
  <unicode hex="254E"/>
  <outline>
    <contour>
      <point x="212" y="435" type="line"/>
      <point x="349" y="435" type="line"/>
      <point x="349" y="685" type="line"/>
      <point x="212" y="685" type="line"/>
    </contour>
    <contour>
      <point x="212" y="-65" type="line"/>
      <point x="349" y="-65" type="line"/>
      <point x="349" y="185" type="line"/>
      <point x="212" y="185" type="line"/>
    </contour>
  </outline>
</glyph>
<glyph name="boxLightArcDownAndRight" format="2">
  <advance width="560"/>
  <unicode hex="256D"/>
  <outline>
    <contour>
      <point x="212" y="-300" type="line"/>
      <point x="349" y="-300" type="line"/>
      <point x="349" y="77" type="line" smooth="yes"/>
      <point x="349" y="168"/>
      <point x="422" y="242"/>
      <point x="513" y="242" type="curve" smooth="yes"/>
      <point x="565" y="242" type="line"/>
      <point x="565" y="379" type="line"/>
      <point x="513" y="379" type="line" smooth="yes"/>
      <point x="347" y="379"/>
      <point x="212" y="243"/>
      <point x="212" y="77" type="curve" smooth="yes"/>
    </contour>
  </outline>
</glyph>
<glyph name="boxLightArcDownAndLeft" format="2">
  <advance width="560"/>
  <unicode hex="256E"/>
  <outline>
    <contour>
      <point x="212" y="-300" type="line"/>
      <point x="349" y="-300" type="line"/>
      <point x="349" y="77" type="line" smooth="yes"/>
      <point x="349" y="243"/>
      <point x="213" y="379"/>
      <point x="47" y="379" type="curve" smooth="yes"/>
      <point x="-5" y="379" type="line"/>
      <point x="-5" y="242" type="line"/>
      <point x="47" y="242" type="line" smooth="yes"/>
      <point x="138" y="242"/>
      <point x="212" y="168"/>
      <point x="212" y="77" type="curve" smooth="yes"/>
    </contour>
  </outline>
</glyph>
<glyph name="boxLightArcUpAndLeft" format="2">
  <advance width="560"/>
  <unicode hex="256F"/>
  <outline>
    <contour>
      <point x="-5" y="242" type="line"/>
      <point x="47" y="242" type="line" smooth="yes"/>
      <point x="213" y="242"/>
      <point x="349" y="377"/>
      <point x="349" y="543" type="curve" smooth="yes"/>
      <point x="349" y="920" type="line"/>
      <point x="212" y="920" type="line"/>
      <point x="212" y="543" type="line" smooth="yes"/>
      <point x="212" y="452"/>
      <point x="138" y="379"/>
      <point x="47" y="379" type="curve" smooth="yes"/>
      <point x="-5" y="379" type="line"/>
    </contour>
  </outline>
</glyph>
<glyph name="boxLightDiagonalUpperRightToLowerLeft" format="2">
  <advance width="560"/>
  <unicode hex="2571"/>
  <outline>
    <contour>
      <point x="0" y="-190" type="line"/>
      <point x="79" y="-190" type="line"/>
      <point x="560" y="670" type="line"/>
      <point x="560" y="810" type="line"/>
      <point x="481" y="810" type="line"/>
      <point x="0" y="-50" type="line"/>
    </contour>
  </outline>
</glyph>
<glyph name="boxLightDiagonalUpperLeftToLowerRight" format="2">
  <advance width="560"/>
  <unicode hex="2572"/>
  <outline>
    <contour>
      <point x="481" y="-190" type="line"/>
      <point x="560" y="-190" type="line"/>
      <point x="560" y="-50" type="line"/>
      <point x="79" y="810" type="line"/>
      <point x="0" y="810" type="line"/>
      <point x="0" y="670" type="line"/>
    </contour>
  </outline>
</glyph>
<glyph name="boxLightDiagonalCross" format="2">
  <advance width="560"/>
  <unicode hex="2573"/>
  <outline>
    <contour>
      <point x="0" y="-190" type="line"/>
      <point x="79" y="-190" type="line"/>
      <point x="280" y="170" type="line"/>
      <point x="481" y="-190" type="line"/>
      <point x="560" y="-190" type="line"/>
      <point x="560" y="-50" type="line"/>
      <point x="359" y="310" type="line"/>
      <point x="560" y="670" type="line"/>
      <point x="560" y="810" type="line"/>
      <point x="481" y="810" type="line"/>
      <point x="280" y="450" type="line"/>
      <point x="79" y="810" type="line"/>
      <point x="0" y="810" type="line"/>
      <point x="0" y="670" type="line"/>
      <point x="201" y="310" type="line"/>
      <point x="0" y="-50" type="line"/>
    </contour>
  </outline>
</glyph>
<glyph name="boxLightLeftAndHeavyRight" format="2">
  <advance width="560"/>
  <unicode hex="257C"/>
  <outline>
    <contour>
      <point x="212" y="173" type="line"/>
      <point x="565" y="173" type="line"/>
      <point x="565" y="447" type="line"/>
      <point x="212" y="447" type="line"/>
      <point x="212" y="379" type="line"/>
      <point x="-5" y="379" type="line"/>
      <point x="-5" y="242" type="line"/>
      <point x="212" y="242" type="line"/>
    </contour>
  </outline>
</glyph>
<glyph name="boxHeavyLeftAndLightRight" format="2">
  <advance width="560"/>
  <unicode hex="257E"/>
  <outline>
    <contour>
      <point x="-5" y="173" type="line"/>
      <point x="349" y="173" type="line"/>
      <point x="349" y="242" type="line"/>
      <point x="565" y="242" type="line"/>
      <point x="565" y="379" type="line"/>
      <point x="349" y="379" type="line"/>
      <point x="349" y="447" type="line"/>
      <point x="-5" y="447" type="line"/>
    </contour>
  </outline>
</glyph>
<glyph name="boxHeavyUpAndLightDown" format="2">
  <advance width="560"/>
  <unicode hex="257F"/>
  <outline>
    <contour>
      <point x="212" y="-300" type="line"/>
      <point x="349" y="-300" type="line"/>
      <point x="349" y="242" type="line"/>
      <point x="417" y="242" type="line"/>
      <point x="417" y="920" type="line"/>
      <point x="143" y="920" type="line"/>
      <point x="143" y="242" type="line"/>
      <point x="212" y="242" type="line"/>
    </contour>
  </outline>
</glyph>
<glyph name="lowerOneEighthBlock" format="2">
  <advance width="560"/>
  <unicode hex="2581"/>
  <outline>
    <contour>
      <point x="0" y="-290" type="line"/>
      <point x="560" y="-290" type="line"/>
      <point x="560" y="-140" type="line"/>
      <point x="0" y="-140" type="line"/>
    </contour>
  </outline>
</glyph>
<glyph name="lowerSevenEighthsBlock" format="2">
  <advance width="560"/>
  <unicode hex="2587"/>
  <outline>
    <contour>
      <point x="0" y="-290" type="line"/>
      <point x="560" y="-290" type="line"/>
      <point x="560" y="760" type="line"/>
      <point x="0" y="760" type="line"/>
    </contour>
  </outline>
</glyph>
<glyph name="upperRightAndLowerLeftBlock" format="2">
  <advance width="560"/>
  <unicode hex="259E"/>
  <outline>
    <contour>
      <point x="280" y="310" type="line"/>
      <point x="560" y="310" type="line"/>
      <point x="560" y="910" type="line"/>
      <point x="280" y="910" type="line"/>
    </contour>
    <contour>
      <point x="0" y="-290" type="line"/>
      <point x="280" y="-290" type="line"/>
      <point x="280" y="310" type="line"/>
      <point x="0" y="310" type="line"/>
    </contour>
  </outline>
</glyph>
<glyph name="ballotBoxWithCheck" format="2">
  <advance width="560"/>
  <unicode hex="2611"/>
  <outline>
    <contour>
      <point x="35" y="0" type="line"/>
      <point x="525" y="0" type="line"/>
      <point x="525" y="490" type="line"/>
      <point x="35" y="490" type="line"/>
    </contour>
    <contour>
      <point x="113" y="78" type="line"/>
      <point x="113" y="412" type="line"/>
      <point x="447" y="412" type="line"/>
      <point x="447" y="78" type="line"/>
    </contour>
    <contour>
      <point x="223" y="102" type="curve"/>
      <point x="295" y="102" type="line"/>
      <point x="340" y="221"/>
      <point x="365" y="268"/>
      <point x="425" y="347" type="curve"/>
      <point x="370" y="388" type="line"/>
      <point x="305" y="303"/>
      <point x="272" y="246"/>
      <point x="231" y="143" type="curve"/>
      <point x="289" y="143" type="line"/>
      <point x="265" y="186"/>
      <point x="229" y="233"/>
      <point x="197" y="262" type="curve"/>
      <point x="138" y="208" type="line"/>
      <point x="164" y="184"/>
      <point x="201" y="143"/>
    </contour>
  </outline>
</glyph>
<glyph name="ballotBoxWithX" format="2">
  <advance width="560"/>
  <unicode hex="2612"/>
  <outline>
    <contour>
      <point x="366" y="114" type="line"/>
      <point x="417" y="164" type="line"/>
      <point x="193" y="386" type="line"/>
      <point x="143" y="336" type="line"/>
    </contour>
    <contour>
      <point x="193" y="114" type="line"/>
      <point x="417" y="336" type="line"/>
      <point x="367" y="386" type="line"/>
      <point x="143" y="164" type="line"/>
    </contour>
    <contour>
      <point x="30" y="0" type="line"/>
      <point x="530" y="0" type="line"/>
      <point x="530" y="500" type="line"/>
      <point x="30" y="500" type="line"/>
    </contour>
    <contour>
      <point x="110" y="80" type="line"/>
      <point x="110" y="420" type="line"/>
      <point x="450" y="420" type="line"/>
      <point x="450" y="80" type="line"/>
    </contour>
  </outline>
</glyph>
<glyph name="dots3-braille" format="2">
  <advance width="560"/>
  <unicode hex="2804"/>
  <outline>
    <contour>
      <point x="165" y="89" type="curve" smooth="yes"/>
      <point x="195" y="89"/>
      <point x="220" y="114"/>
      <point x="220" y="145" type="curve" smooth="yes"/>
      <point x="220" y="175"/>
      <point x="195" y="199"/>
      <point x="165" y="199" type="curve" smooth="yes"/>
      <point x="134" y="199"/>
      <point x="110" y="175"/>
      <point x="110" y="145" type="curve" smooth="yes"/>
      <point x="110" y="114"/>
      <point x="134" y="89"/>
    </contour>
  </outline>
</glyph>
<glyph name="dots4-braille" format="2">
  <advance width="560"/>
  <unicode hex="2808"/>
  <outline>
    <contour>
      <point x="395" y="549" type="curve" smooth="yes"/>
      <point x="425" y="549"/>
      <point x="450" y="574"/>
      <point x="450" y="605" type="curve" smooth="yes"/>
      <point x="450" y="635"/>
      <point x="425" y="659"/>
      <point x="395" y="659" type="curve" smooth="yes"/>
      <point x="364" y="659"/>
      <point x="340" y="635"/>
      <point x="340" y="605" type="curve" smooth="yes"/>
      <point x="340" y="574"/>
      <point x="364" y="549"/>
    </contour>
  </outline>
</glyph>
<glyph name="dots6-braille" format="2">
  <advance width="560"/>
  <unicode hex="2820"/>
  <outline>
    <contour>
      <point x="395" y="89" type="curve" smooth="yes"/>
      <point x="425" y="89"/>
      <point x="450" y="114"/>
      <point x="450" y="145" type="curve" smooth="yes"/>
      <point x="450" y="175"/>
      <point x="425" y="199"/>
      <point x="395" y="199" type="curve" smooth="yes"/>
      <point x="364" y="199"/>
      <point x="340" y="175"/>
      <point x="340" y="145" type="curve" smooth="yes"/>
      <point x="340" y="114"/>
      <point x="364" y="89"/>
    </contour>
  </outline>
</glyph>
